<svg width="640" height="220" viewBox="0 0 640 220" fill="none" xmlns="http://www.w3.org/2000/svg">
  <defs>
    <linearGradient id="codedash-blue" x1="35" y1="26" x2="189" y2="175" gradientUnits="userSpaceOnUse">
      <stop offset="0" stop-color="#47AEFF" />
      <stop offset="1" stop-color="#005BFF" />
    </linearGradient>
    <filter id="soft-shadow" x="8" y="0" width="220" height="210" filterUnits="userSpaceOnUse" color-interpolation-filters="sRGB">
      <feGaussianBlur stdDeviation="8" />
    </filter>
  </defs>

  <g filter="url(#soft-shadow)" opacity="0.14">
    <path d="M89 38C89 24.1005 104.827 16.1523 115.966 24.3301L187.966 77.1801C197.581 84.2388 197.581 98.7612 187.966 105.82L115.966 158.67C104.827 166.848 89 158.899 89 145V38Z" fill="#005BFF" />
    <path d="M31.5563 80.5563C37.4142 74.6984 46.9117 74.6984 52.7695 80.5563L62.7574 90.5442C68.6153 96.4021 68.6153 105.9 62.7574 111.757L52.7695 121.745C46.9117 127.603 37.4142 127.603 31.5563 121.745C25.6985 115.887 25.6985 106.389 31.5563 100.532L35.2298 96.8584L31.5563 93.1849C25.6985 87.327 25.6985 86.4142 31.5563 80.5563Z" fill="#005BFF" />
  </g>

  <path d="M88 36C88 22.1005 103.827 14.1523 114.966 22.3301L186.966 75.1801C196.581 82.2388 196.581 96.7612 186.966 103.82L114.966 156.67C103.827 164.848 88 156.899 88 143V36Z" fill="url(#codedash-blue)" />
  <path d="M30.5563 78.5563C36.4142 72.6984 45.9117 72.6984 51.7695 78.5563L61.7574 88.5442C67.6153 94.4021 67.6153 103.9 61.7574 109.757L51.7695 119.745C45.9117 125.603 36.4142 125.603 30.5563 119.745C24.6985 113.887 24.6985 104.389 30.5563 98.5318L34.2298 94.8584L30.5563 91.1849C24.6985 85.327 24.6985 84.4142 30.5563 78.5563Z" fill="url(#codedash-blue)" />

  <path d="M258.063 149.35C273.047 149.35 284.292 143.408 291.251 133.4L281.304 124.428C275.976 131.325 268.322 135.383 258.801 135.383C242.282 135.383 230.913 123.516 230.913 107.865C230.913 92.214 242.282 80.348 258.801 80.348C268.322 80.348 275.976 84.343 281.304 91.116L291.251 82.268C284.292 72.26 273.047 66.38 258.187 66.38C233.245 66.38 214.951 84.157 214.951 107.865C214.951 131.573 233.245 149.35 258.063 149.35ZM346.445 149.35C368.65 149.35 384.122 133.462 384.122 111.91C384.122 90.358 368.65 74.595 346.445 74.595C324.117 74.595 308.645 90.358 308.645 111.91C308.645 133.462 324.117 149.35 346.445 149.35ZM346.445 135.757C333.327 135.757 323.444 126.536 323.444 111.91C323.444 97.284 333.327 88.188 346.445 88.188C359.438 88.188 369.446 97.284 369.446 111.91C369.446 126.536 359.438 135.757 346.445 135.757ZM430.168 149.35C441.039 149.35 450.124 145.479 455.665 138.956V148.476H469.757V73.857H455.043V109.765C455.043 126.287 446.444 134.761 433.701 134.761C422.083 134.761 415.373 127.988 415.373 114.269V73.857H400.658V116.264C400.658 138.458 413.153 149.35 430.168 149.35ZM524.81 149.35C546.023 149.35 560.738 133.961 560.738 111.91C560.738 89.859 546.023 74.595 524.81 74.595C514.34 74.595 505.256 78.404 499.092 85.674V45.223H484.377V148.476H498.469V138.832C504.386 146.226 513.845 149.35 524.81 149.35ZM523.813 135.757C510.82 135.757 500.812 126.536 500.812 111.91C500.812 97.284 510.82 88.188 523.813 88.188C536.931 88.188 546.022 97.284 546.022 111.91C546.022 126.536 536.931 135.757 523.813 135.757Z" fill="#0A0A0A" />
</svg>
