<svg width="512" height="512" viewBox="0 0 512 512" fill="none" xmlns="http://www.w3.org/2000/svg">
  <defs>
    <linearGradient id="codedash-blue" x1="118" y1="146" x2="392" y2="365" gradientUnits="userSpaceOnUse">
      <stop offset="0" stop-color="#47AEFF" />
      <stop offset="1" stop-color="#005BFF" />
    </linearGradient>
  </defs>
  <path d="M220 158C220 141.432 238.876 131.956 252.154 141.7L374.654 231.6C386.114 240.006 386.114 257.194 374.654 265.6L252.154 355.5C238.876 365.244 220 355.769 220 339.2V158Z" fill="url(#codedash-blue)" />
  <path d="M126.405 228.156C134.217 220.343 146.882 220.343 154.695 228.156L170.189 243.65C178.001 251.462 178.001 264.127 170.189 271.94L154.695 287.434C146.882 295.246 134.217 295.246 126.405 287.434C118.592 279.621 118.592 266.956 126.405 259.144L127.994 257.555L126.405 255.966C118.592 248.154 118.592 235.969 126.405 228.156Z" fill="url(#codedash-blue)" />
</svg>
