<svg width="512" height="512" viewBox="0 0 512 512" fill="none" xmlns="http://www.w3.org/2000/svg">
  <defs>
    <linearGradient id="codedash-blue" x1="104" y1="103" x2="389" y2="374" gradientUnits="userSpaceOnUse">
      <stop offset="0" stop-color="#47AEFF" />
      <stop offset="1" stop-color="#005BFF" />
    </linearGradient>
    <filter id="soft-glow" x="70" y="72" width="372" height="367" filterUnits="userSpaceOnUse" color-interpolation-filters="sRGB">
      <feGaussianBlur stdDeviation="6" />
    </filter>
  </defs>

  <g filter="url(#soft-glow)" opacity="0.18">
    <path d="M225 112C225 95.4315 243.876 85.9558 257.154 95.6998L379.654 185.6C391.114 194.006 391.114 211.194 379.654 219.6L257.154 309.5C243.876 319.244 225 309.769 225 293.2V112Z" fill="#005BFF" />
    <path d="M124.405 185.156C132.217 177.343 144.882 177.343 152.695 185.156L168.189 200.65C176.001 208.462 176.001 221.127 168.189 228.94L152.695 244.434C144.882 252.246 132.217 252.246 124.405 244.434C116.592 236.621 116.592 223.956 124.405 216.144L125.994 214.555L124.405 212.966C116.592 205.154 116.592 192.969 124.405 185.156Z" fill="#005BFF" />
  </g>

  <path d="M224 108C224 91.4315 242.876 81.9558 256.154 91.6998L378.654 181.6C390.114 190.006 390.114 207.194 378.654 215.6L256.154 305.5C242.876 315.244 224 305.769 224 289.2V108Z" fill="url(#codedash-blue)" />
  <path d="M123.405 181.156C131.217 173.343 143.882 173.343 151.695 181.156L167.189 196.65C175.001 204.462 175.001 217.127 167.189 224.94L151.695 240.434C143.882 248.246 131.217 248.246 123.405 240.434C115.592 232.621 115.592 219.956 123.405 212.144L124.994 210.555L123.405 208.966C115.592 201.154 115.592 188.969 123.405 181.156Z" fill="url(#codedash-blue)" />
</svg>
